Coordinates
version=1
nRows=31
nColumns=33
inDegrees=yes

Units are S.I. units (second, meters, Newtons, ...)
Angles are in degrees.

endheader
time	ground_thorax_rot_x	ground_thorax_rot_y	ground_thorax_rot_z	ground_thorax_tx	ground_thorax_ty	ground_thorax_tz	clav_prot_r	clav_elev_r	scapula_abduction_r	scapula_elevation_r	scapula_upward_rot_r	scapula_winging_r	shoulder_elv_r	plane_of_elev_r	axial_rot_r	elbow_flexion_r	pro_sup_r	wrist_flex_r	wrist_dev_r	clav_prot_l	clav_elev_l	scapula_abduction_l	scapula_elevation_l	scapula_upward_rot_l	scapula_winging_l	shoulder_elv_l	plane_of_elev_l	axial_rot_l	elbow_flexion_l	pro_sup_l	wrist_flex_l	wrist_dev_l	
0.9800	-42.716502	-2.554612	1.896638	-59.164171	789.853122	-6.582286	6.766175	-45.000000	45.000000	-45.000000	-14.665531	-2244.632135	-1909.224013	145.629545	180.000000	366.003420	47.337997	20.151383	14.046343	15.540875	44.999074	-45.000000	-44.731633	-17.317943	1877.574988	-4610.957059	31.213033	24.532646	-718.694500	35.900600	11.451983	-19.188637	
0.9900	-42.775384	-2.366687	1.850154	-61.231325	790.446176	-6.591849	6.700284	-45.000000	45.000000	-45.000000	-14.704349	-2244.854768	-1908.990008	145.585450	180.000000	366.226352	46.974036	20.132234	13.964754	15.174301	44.998088	-44.999999	-44.789245	-16.884915	1878.010371	-4611.086734	31.104394	23.945951	-718.461302	35.816529	11.403783	-19.397751	
1.0000	-42.826406	-2.199794	1.826414	-63.374787	791.071574	-6.597304	6.644077	-45.000000	45.000000	-45.000000	-14.785533	-2245.088384	-1908.741702	145.533999	180.000000	366.456575	46.642519	20.103694	13.871854	14.818949	44.997280	-44.999999	-44.829420	-16.488115	1878.453174	-4611.196519	31.000969	23.391522	-718.242948	35.678994	11.362401	-19.605636	
1.0100	-42.868058	-2.123819	1.923145	-65.680837	791.762723	-6.594178	6.643515	-45.000000	45.000000	-45.000000	-14.995899	-2245.357100	-1908.478795	145.492657	180.000000	366.692115	46.404493	20.140789	13.768832	14.656198	44.996608	-44.999998	-44.884972	-16.433928	1878.821999	-4611.193325	30.912410	22.879808	-717.989835	35.387979	11.311642	-19.766629	
1.0200	-42.897493	-2.104589	2.092061	-68.162028	792.526905	-6.582161	6.669643	-45.000000	45.000000	-45.000000	-15.293720	-2245.659296	-1908.198412	145.446504	180.000000	366.928882	46.245193	20.221385	13.657336	14.591534	44.996683	-44.999996	-44.932405	-16.557933	1879.168125	-4611.128968	30.836629	22.402190	-717.740461	34.977359	11.268173	-19.904286	
1.0300	-42.916290	-2.135086	2.319501	-70.841191	793.374493	-6.560595	6.719364	-45.000000	45.000000	-45.000000	-15.658969	-2245.993151	-1907.907121	145.400876	180.000000	367.168867	46.159963	20.339179	13.534085	14.604569	44.996694	-44.999993	-44.970627	-16.833811	1879.499555	-4611.012413	30.764841	21.939047	-717.487501	34.459522	11.225576	-20.021628	
1.0400	-42.924348	-2.191901	2.573787	-73.720294	794.307134	-6.530070	6.773929	-45.000000	44.999999	-45.000000	-16.055985	-2246.353960	-1907.607516	145.353258	180.000000	367.404071	46.129895	20.483792	13.403007	14.641171	44.997056	-44.999987	-44.992651	-17.167100	1879.839941	-4610.875287	30.692395	21.471483	-717.249672	33.877555	11.187433	-20.132331	
1.0500	-42.923618	-2.270949	2.846508	-76.792010	795.321515	-6.491420	6.838126	-45.000000	44.999999	-45.000000	-16.477950	-2246.733986	-1907.304369	145.309865	180.000000	367.636472	46.129911	20.635796	13.259584	14.689022	44.996750	-44.999978	-45.000000	-17.547878	1880.188198	-4610.721307	30.611330	20.992242	-717.018199	33.252320	11.143238	-20.239459	
1.0600	-42.915977	-2.382932	3.149295	-80.049243	796.412694	-6.444862	6.916869	-45.000000	44.999998	-45.000000	-16.947370	-2247.133035	-1907.001532	145.269635	180.000000	367.862180	46.145310	20.795907	13.109347	14.756475	44.995422	-44.999960	-45.000000	-17.986962	1880.545185	-4610.558879	30.521381	20.505319	-716.796464	32.591269	11.094979	-20.343996	
1.0700	-42.906655	-2.506178	3.458105	-83.486206	797.574891	-6.389593	6.998180	-45.000000	44.999997	-45.000000	-17.432466	-2247.546451	-1906.707051	145.236132	180.000000	368.080339	46.163911	20.962449	12.949642	14.826117	44.991771	-44.999928	-45.000000	-18.458988	1880.907507	-4610.392147	30.419659	20.009540	-716.575738	31.903573	11.041122	-20.451299	
1.0800	-42.894156	-2.641489	3.777288	-87.097808	798.801499	-6.323851	7.085258	-45.000000	44.999994	-45.000000	-17.942108	-2247.970263	-1906.417343	145.211760	180.000000	368.287294	46.180486	21.131018	12.783083	14.904567	44.985341	-44.999871	-45.000000	-18.974854	1881.269348	-4610.219344	30.306818	19.492054	-716.357856	31.192241	10.981065	-20.558490	
1.0900	-42.879275	-2.768714	4.086437	-90.879183	800.085320	-6.245152	7.169432	-45.000000	44.999990	-45.000000	-18.458026	-2248.399537	-1906.134418	145.194867	180.000000	368.481501	46.191063	21.301442	12.608852	14.973620	44.973514	-44.999769	-45.000000	-19.498491	1881.632567	-4610.053289	30.180275	18.927764	-716.141956	30.465601	10.916503	-20.669720	
1.1000	-42.860725	-2.908755	4.410549	-94.823670	801.418041	-6.150878	7.264469	-45.000000	44.999982	-45.000000	-19.021647	-2248.833738	-1905.855146	145.186079	180.000000	368.663964	46.197408	21.467870	12.430279	15.047944	44.953192	-44.999586	-45.000000	-20.061139	1881.996720	-4609.898649	30.037238	18.284325	-715.925662	29.716815	10.845695	-20.778463	
1.1100	-42.839641	-3.036522	4.724011	-98.921907	802.790170	-6.038791	7.357600	-45.000000	44.999967	-45.000000	-19.609254	-2249.273631	-1905.581500	145.177234	180.000000	368.829279	46.201274	21.632999	12.249790	15.103003	44.914376	-44.999258	-45.000000	-20.618955	1882.367895	-4609.770767	29.881518	17.536217	-715.714613	28.951750	10.773786	-20.889570	
1.1200	-42.812583	-3.182760	5.064569	-103.161398	804.190929	-5.907440	7.480722	-45.000000	44.999941	-45.000000	-20.279557	-2249.720436	-1905.303923	145.169891	180.000000	368.980846	46.205471	21.784705	12.068553	15.188679	44.851584	-44.998672	-45.000000	-21.272573	1882.727313	-4609.642664	29.720177	16.680582	-715.500619	28.141837	10.693891	-20.985770	
1.1300	-42.776495	-3.360117	5.447600	-107.527216	805.608822	-5.756180	7.659601	-45.000000	44.999895	-45.000000	-21.071158	-2250.180093	-1905.019588	145.149036	180.000000	369.119630	46.212984	21.924818	11.895707	15.335502	44.753644	-44.997620	-45.000000	-22.084085	1883.071898	-4609.502354	29.573549	15.738538	-715.283684	27.244889	10.615051	-21.061316	
1.1400	-42.733081	-3.575476	5.876166	-112.003226	807.032079	-5.585038	7.895565	-45.000000	44.999811	-45.000000	-21.987627	-2250.648368	-1904.727481	145.119199	180.000000	369.249865	46.224113	22.047263	11.729973	15.545834	44.630678	-44.995738	-45.000000	-23.072959	1883.396615	-4609.339214	29.444412	14.744432	-715.065062	26.239720	10.546621	-21.109402	
1.1500	-42.685919	-3.799035	6.311335	-116.572976	808.449181	-5.394491	8.160383	-45.000000	44.999662	-45.000000	-22.972391	-2251.124591	-1904.442596	145.075645	180.000000	369.364692	46.241807	22.162937	11.580285	15.776915	44.477752	-44.992362	-45.000000	-24.148067	1883.716288	-4609.178389	29.332759	13.722876	-714.859823	25.139776	10.503223	-21.140599	
1.1600	-42.639648	-4.007421	6.720685	-121.220881	809.849325	-5.185296	8.421690	-45.000000	44.999394	-45.000000	-23.963035	-2251.603611	-1904.179301	145.028258	180.000000	369.461107	46.268972	22.273016	11.446794	15.983765	44.305485	-44.986329	-45.000000	-25.215231	1884.036901	-4609.040487	29.222235	12.689003	-714.680780	23.987472	10.488634	-21.160135	
1.1700	-42.587872	-4.235961	7.148368	-125.931952	811.222628	-4.958386	8.692409	-45.000000	44.998915	-45.000000	-25.005674	-2252.094178	-1903.947348	144.976092	180.000000	369.533645	46.312900	22.382769	11.339751	16.196723	44.086496	-44.975479	-45.000000	-26.320918	1884.340195	-4608.918017	29.102328	11.668442	-714.530232	22.770704	10.486739	-21.158925	
1.1800	-42.537457	-4.454284	7.559573	-130.691750	812.560430	-4.714852	8.937358	-45.000000	44.998056	-45.000000	-26.049902	-2252.583223	-1903.749726	144.933813	180.000000	369.583797	46.373507	22.492156	11.251743	16.362804	43.853767	-44.956168	-45.000000	-27.364578	1884.635626	-4608.832738	28.968064	10.665675	-714.424502	21.535252	10.517581	-21.146985	
1.1900	-42.479432	-4.703327	8.003612	-135.485938	813.855490	-4.455964	9.169120	-45.000000	44.996518	-45.000000	-27.170784	-2253.080774	-1903.583940	144.891262	180.000000	369.606879	46.456291	22.606904	11.191926	16.525165	43.574484	-44.921229	-45.000000	-28.423061	1884.900478	-4608.766771	28.816351	9.718374	-714.357481	20.255806	10.560800	-21.113153	
1.2000	-42.415648	-4.965706	8.454796	-140.300328	815.102390	-4.183110	9.382375	-45.000000	44.993764	-45.000000	-28.351221	-2253.573227	-1903.441347	144.852029	180.000000	369.610639	46.559332	22.724045	11.154175	16.662653	43.279526	-44.859612	-45.000000	-29.469886	1885.138314	-4608.720077	28.661901	8.834353	-714.330483	18.951866	10.637141	-21.062292	
1.2100	-42.337172	-5.286011	8.956721	-145.121015	816.297941	-3.897650	9.612212	-45.000000	44.988825	-45.000000	-29.651030	-2254.067885	-1903.320089	144.803366	180.000000	369.594234	46.684070	22.845430	11.147082	16.811419	42.945499	-44.746532	-45.000000	-30.595698	1885.326206	-4608.662018	28.512884	8.028735	-714.323134	17.598400	10.729362	-20.986119	
1.2200	-42.252500	-5.606397	9.434294	-149.934652	817.441535	-3.600652	9.848204	-45.000000	44.979995	-45.000000	-30.962818	-2254.540596	-1903.219112	144.759815	180.000000	369.563434	46.821888	22.962332	11.158262	16.900165	42.633601	-44.573171	-45.000000	-31.683191	1885.491453	-4608.614981	28.386954	7.251661	-714.336573	16.274428	10.871497	-20.906095	
1.2300	-42.155508	-5.961232	9.919277	-154.729128	818.535380	-3.292747	10.092794	-45.000000	44.964128	-45.000000	-32.355085	-2254.991661	-1903.131517	144.711216	180.000000	369.521938	46.970055	23.081840	11.188754	16.947021	42.313170	-44.320632	-45.000000	-32.763970	1885.613399	-4608.558803	28.272161	6.532095	-714.362701	14.978586	11.035337	-20.817870	
1.2400	-42.051719	-6.315884	10.378557	-159.493775	819.584285	-2.973903	10.346566	-45.000000	44.935848	-45.000000	-33.770853	-2255.413013	-1903.056035	144.666878	180.000000	369.471195	47.125609	23.198099	11.231297	16.937257	42.012179	-44.011060	-45.000000	-33.795374	1885.711909	-4608.507592	28.173635	5.826555	-714.401605	13.766254	11.224598	-20.732056	
1.2500	-41.942662	-6.687522	10.837021	-164.218845	820.594532	-2.643840	10.605159	-45.000000	44.884790	-45.000000	-35.259823	-2255.810488	-1902.990667	144.619167	180.000000	369.421449	47.290787	23.317817	11.284078	16.899653	41.704119	-43.656864	-45.000000	-34.807329	1885.783501	-4608.448874	28.079034	5.143742	-714.446625	12.639342	11.407425	-20.645957	
1.2600	-41.837796	-7.028597	11.255675	-168.894679	821.572295	-2.302436	10.850794	-45.000000	44.794452	-45.000000	-36.768996	-2256.173653	-1902.929091	144.576089	180.000000	369.379315	47.469861	23.436650	11.336391	16.830168	41.420381	-43.299620	-45.000000	-35.757494	1885.857960	-4608.401616	27.996044	4.450691	-714.496258	11.647629	11.587589	-20.570771	
1.2700	-41.737604	-7.359350	11.656299	-173.509650	822.521268	-1.950684	11.058700	-45.000000	44.656127	-45.000000	-38.363355	-2256.500080	-1902.855516	144.526436	180.000000	369.355530	47.673818	23.564666	11.382974	16.766822	41.135313	-42.947601	-45.000000	-36.690178	1885.922511	-4608.345546	27.915104	3.804844	-714.548820	10.768871	11.738379	-20.499524	
1.2800	-41.646093	-7.652026	12.015657	-178.049914	823.441776	-1.590690	11.220331	-45.000000	44.467173	-45.000000	-39.973268	-2256.791939	-1902.772883	144.474410	180.000000	369.340648	47.917203	23.696744	11.414095	16.710872	40.864977	-42.622146	-45.000000	-37.580541	1885.986622	-4608.289713	27.840127	3.211358	-714.606004	10.027627	11.860825	-20.437482	
